# xmcd
#
# Track frame offsets:
#	150
#	17126
#	35675
#	54192
#	68332
#	84770
#	104020
#	121208
#	137089
#	152593
#	171247
#	187839
#
# Disc length: 2706 seconds
#
# Revision: 1
# Processed by: cddbd v1.5.2PL0 Copyright (c) Steve Scherf et al.
# Submitted via: audiograbber 1.83.01
#
DISCID=8e0a900c
DTITLE=Gene Thomas - 2bnect2u
DYEAR=1900
DGENRE=pop
TTITLE0=Heaven is calling
TTITLE1=2b next 2u
TTITLE2=Get Over You
TTITLE3=Dynamite
TTITLE4=New Horizon
TTITLE5=Forever´s Gonna start Tonight
TTITLE6=Like I Do
TTITLE7=You Won´t Be Lonely Long
TTITLE8=Ok
TTITLE9=Say Goodbey
TTITLE10=I Live For This
TTITLE11=Superficiality
EXTD=
EXTT0=
EXTT1=
EXTT2=
EXTT3=
EXTT4=
EXTT5=
EXTT6=
EXTT7=
EXTT8=
EXTT9=
EXTT10=
EXTT11=
PLAYORDER=
